<svg width="64" height="64" viewBox="0 0 64 64" fill="none" xmlns="http://www.w3.org/2000/svg">
<rect width="64" height="64" rx="16" fill="url(#paint0_linear_26_4)" style=""/>
<path fill-rule="evenodd" clip-rule="evenodd" d="M7 18C7 12.4772 11.4772 8 17 8H32H47C52.5228 8 57 12.4772 57 18V28C57 33.5228 52.5228 38 47 38H41.0219C38.8124 38 36.7925 36.7516 35.8044 34.7754L35.4213 34.0093C34.8567 32.88 33.7025 32.1667 32.4399 32.1667H32H31.5601C30.2975 32.1667 29.1433 32.88 28.5787 34.0093L28.1956 34.7754C27.2075 36.7516 25.1876 38 22.9781 38H17C11.4772 38 7 33.5228 7 28V18ZM24.5 22.1667C24.5 24.9281 22.2614 27.1667 19.5 27.1667C16.7386 27.1667 14.5 24.9281 14.5 22.1667C14.5 19.4052 16.7386 17.1667 19.5 17.1667C22.2614 17.1667 24.5 19.4052 24.5 22.1667ZM54.3812 19.4245C54.6732 19.1621 54.7874 18.7516 54.652 18.3835L54.6562 18.3792C54.4701 17.8757 54.2458 17.3932 53.9876 16.9277L53.7887 16.585C53.5094 16.1195 53.1963 15.6794 52.8535 15.2646C52.6038 14.9642 52.1891 14.8584 51.8167 14.9769L49.4596 15.7259C48.8926 15.29 48.2663 14.9261 47.5977 14.651L47.0687 12.2347C46.9841 11.8496 46.6878 11.5449 46.2985 11.4814C45.7145 11.3841 45.1136 11.3333 44.5 11.3333C43.8864 11.3333 43.2855 11.3841 42.7015 11.4857C42.3122 11.5492 42.0159 11.8538 41.9313 12.2389L41.4023 14.6553C40.7337 14.9303 40.1074 15.2943 39.5404 15.7301L37.1833 14.9811C36.8109 14.8626 36.3962 14.9642 36.1465 15.2689C35.8037 15.6836 35.4906 16.1237 35.2113 16.5892L35.0124 16.932C34.7542 17.3975 34.5299 17.8799 34.3438 18.3835C34.2083 18.7516 34.3226 19.1621 34.6146 19.4245L36.4469 21.0918C36.4004 21.443 36.375 21.8027 36.375 22.1667C36.375 22.5306 36.4004 22.8903 36.4469 23.2458L34.6146 24.9131C34.3226 25.1755 34.2083 25.5859 34.3438 25.9541C34.5299 26.4577 34.7542 26.9401 35.0124 27.4056L35.2113 27.7484C35.4906 28.2139 35.8037 28.654 36.1465 29.0687C36.3962 29.3691 36.8109 29.4749 37.1833 29.3564L39.5361 28.6032C40.1032 29.0391 40.7295 29.403 41.3981 29.6781L41.9271 32.0944C42.0117 32.4795 42.3079 32.7842 42.6973 32.8477C43.2812 32.945 43.8822 32.9958 44.4958 32.9958C45.1094 32.9958 45.7103 32.945 46.2943 32.8477C46.6836 32.7842 46.9798 32.4795 47.0645 32.0944L47.5934 29.6781C48.262 29.403 48.8883 29.0391 49.4554 28.6032L51.8125 29.3522C52.1849 29.4707 52.5996 29.3691 52.8493 29.0645C53.1921 28.6497 53.5052 28.2096 53.7845 27.7441L53.9834 27.4014C54.2415 26.9359 54.4658 26.4534 54.652 25.9499C54.7874 25.5817 54.6732 25.1712 54.3812 24.9089L52.5488 23.2415C52.5954 22.8903 52.6208 22.5306 52.6208 22.1667C52.6208 21.8027 52.5954 21.443 52.5488 21.0918L54.3812 19.4245ZM44.5 27.1667C47.2614 27.1667 49.5 24.9281 49.5 22.1667C49.5 19.4052 47.2614 17.1667 44.5 17.1667C41.7386 17.1667 39.5 19.4052 39.5 22.1667C39.5 24.9281 41.7386 27.1667 44.5 27.1667Z" fill="#F5F5F5" style="fill:#F5F5F5;fill:color(display-p3 0.9608 0.9608 0.9608);fill-opacity:1;"/>
<mask id="path-4-outside-1_26_4" maskUnits="userSpaceOnUse" x="9" y="43" width="46" height="15" fill="black">
<rect fill="white" x="9" y="43" width="46" height="15"/>
<path d="M10.2252 44.2031H17.6256V46.1982H15.1295V55.0137H17.6256V57H10.2252V55.0137H12.6598V46.1982H10.2252V44.2031ZM22.2258 57L20.468 44.2031H22.7268L23.5793 51.3574L23.6408 51.8584L23.7199 51.3311L24.7307 44.2031H26.4973L27.5695 51.3838L27.6486 51.9111L27.7102 51.375L28.5803 44.2031H30.8479L29.0725 57H26.84L25.7238 50.0918L25.6271 49.4414L25.5305 50.0918L24.4582 57H22.2258ZM40.9764 51.3926H35.7205V55.0049H41.8641V57H33.242V44.2031H41.8377V46.2158H35.7205V49.4414H40.9764V51.3926ZM49.1537 52.2188H47.2816V57H44.8119V44.2031H49.101C49.81 44.2031 50.4516 44.2881 51.0258 44.458C51.6 44.6221 52.0922 44.8652 52.5023 45.1875C52.9066 45.5098 53.2172 45.9111 53.434 46.3916C53.6566 46.8721 53.768 47.4287 53.768 48.0615C53.768 48.5186 53.7123 48.9316 53.601 49.3008C53.4955 49.6641 53.3432 49.9893 53.1439 50.2764C52.9389 50.5693 52.6928 50.8242 52.4057 51.041C52.1244 51.2578 51.808 51.4453 51.4564 51.6035L54.2074 56.8857V57H51.5619L49.1537 52.2188ZM47.2816 50.2148H49.1098C49.4906 50.2148 49.8246 50.1621 50.1117 50.0566C50.4047 49.9453 50.642 49.7871 50.8236 49.582C50.976 49.418 51.0902 49.2217 51.1664 48.9932C51.2484 48.7646 51.2895 48.5098 51.2895 48.2285C51.2895 47.8887 51.2367 47.5898 51.1312 47.332C51.0316 47.0684 50.8793 46.8516 50.6742 46.6816C50.4926 46.5293 50.2699 46.4121 50.0062 46.3301C49.7426 46.248 49.4408 46.207 49.101 46.207H47.2816V50.2148Z"/>
</mask>
<path d="M10.2252 44.2031H17.6256V46.1982H15.1295V55.0137H17.6256V57H10.2252V55.0137H12.6598V46.1982H10.2252V44.2031ZM22.2258 57L20.468 44.2031H22.7268L23.5793 51.3574L23.6408 51.8584L23.7199 51.3311L24.7307 44.2031H26.4973L27.5695 51.3838L27.6486 51.9111L27.7102 51.375L28.5803 44.2031H30.8479L29.0725 57H26.84L25.7238 50.0918L25.6271 49.4414L25.5305 50.0918L24.4582 57H22.2258ZM40.9764 51.3926H35.7205V55.0049H41.8641V57H33.242V44.2031H41.8377V46.2158H35.7205V49.4414H40.9764V51.3926ZM49.1537 52.2188H47.2816V57H44.8119V44.2031H49.101C49.81 44.2031 50.4516 44.2881 51.0258 44.458C51.6 44.6221 52.0922 44.8652 52.5023 45.1875C52.9066 45.5098 53.2172 45.9111 53.434 46.3916C53.6566 46.8721 53.768 47.4287 53.768 48.0615C53.768 48.5186 53.7123 48.9316 53.601 49.3008C53.4955 49.6641 53.3432 49.9893 53.1439 50.2764C52.9389 50.5693 52.6928 50.8242 52.4057 51.041C52.1244 51.2578 51.808 51.4453 51.4564 51.6035L54.2074 56.8857V57H51.5619L49.1537 52.2188ZM47.2816 50.2148H49.1098C49.4906 50.2148 49.8246 50.1621 50.1117 50.0566C50.4047 49.9453 50.642 49.7871 50.8236 49.582C50.976 49.418 51.0902 49.2217 51.1664 48.9932C51.2484 48.7646 51.2895 48.5098 51.2895 48.2285C51.2895 47.8887 51.2367 47.5898 51.1312 47.332C51.0316 47.0684 50.8793 46.8516 50.6742 46.6816C50.4926 46.5293 50.2699 46.4121 50.0062 46.3301C49.7426 46.248 49.4408 46.207 49.101 46.207H47.2816V50.2148Z" fill="#F5F5F5" style="fill:#F5F5F5;fill:color(display-p3 0.9608 0.9608 0.9608);fill-opacity:1;"/>
<path d="M10.2252 44.2031V43.7031H9.72519V44.2031H10.2252ZM17.6256 44.2031H18.1256V43.7031H17.6256V44.2031ZM17.6256 46.1982V46.6982H18.1256V46.1982H17.6256ZM15.1295 46.1982V45.6982H14.6295V46.1982H15.1295ZM15.1295 55.0137H14.6295V55.5137H15.1295V55.0137ZM17.6256 55.0137H18.1256V54.5137H17.6256V55.0137ZM17.6256 57V57.5H18.1256V57H17.6256ZM10.2252 57H9.72519V57.5H10.2252V57ZM10.2252 55.0137V54.5137H9.72519V55.0137H10.2252ZM12.6598 55.0137V55.5137H13.1598V55.0137H12.6598ZM12.6598 46.1982H13.1598V45.6982H12.6598V46.1982ZM10.2252 46.1982H9.72519V46.6982H10.2252V46.1982ZM10.2252 44.7031H17.6256V43.7031H10.2252V44.7031ZM17.1256 44.2031V46.1982H18.1256V44.2031H17.1256ZM17.6256 45.6982H15.1295V46.6982H17.6256V45.6982ZM14.6295 46.1982V55.0137H15.6295V46.1982H14.6295ZM15.1295 55.5137H17.6256V54.5137H15.1295V55.5137ZM17.1256 55.0137V57H18.1256V55.0137H17.1256ZM17.6256 56.5H10.2252V57.5H17.6256V56.5ZM10.7252 57V55.0137H9.72519V57H10.7252ZM10.2252 55.5137H12.6598V54.5137H10.2252V55.5137ZM13.1598 55.0137V46.1982H12.1598V55.0137H13.1598ZM12.6598 45.6982H10.2252V46.6982H12.6598V45.6982ZM10.7252 46.1982V44.2031H9.72519V46.1982H10.7252ZM22.2258 57L21.7304 57.068L21.7898 57.5H22.2258V57ZM20.468 44.2031V43.7031H19.8946L19.9726 44.2712L20.468 44.2031ZM22.7268 44.2031L23.2232 44.144L23.1707 43.7031H22.7268V44.2031ZM23.5793 51.3574L23.0828 51.4166L23.083 51.4184L23.5793 51.3574ZM23.6408 51.8584L23.1445 51.9193L24.1353 51.9326L23.6408 51.8584ZM23.7199 51.3311L24.2144 51.4052L24.215 51.4013L23.7199 51.3311ZM24.7307 44.2031V43.7031H24.2966L24.2356 44.1329L24.7307 44.2031ZM26.4973 44.2031L26.9918 44.1293L26.9281 43.7031H26.4973V44.2031ZM27.5695 51.3838L27.075 51.4576L27.0751 51.458L27.5695 51.3838ZM27.6486 51.9111L27.1542 51.9853L28.1454 51.9681L27.6486 51.9111ZM27.7102 51.375L27.2138 51.3148L27.2134 51.318L27.7102 51.375ZM28.5803 44.2031V43.7031H28.1373L28.0839 44.1429L28.5803 44.2031ZM30.8479 44.2031L31.3431 44.2718L31.422 43.7031H30.8479V44.2031ZM29.0725 57V57.5H29.5079L29.5677 57.0687L29.0725 57ZM26.84 57L26.3464 57.0798L26.4143 57.5H26.84V57ZM25.7238 50.0918L25.2292 50.1653L25.2302 50.1716L25.7238 50.0918ZM25.6271 49.4414L26.1217 49.3679H25.1326L25.6271 49.4414ZM25.5305 50.0918L26.0246 50.1685L26.025 50.1653L25.5305 50.0918ZM24.4582 57V57.5H24.8866L24.9523 57.0767L24.4582 57ZM22.7211 56.932L20.9633 44.1351L19.9726 44.2712L21.7304 57.068L22.7211 56.932ZM20.468 44.7031H22.7268V43.7031H20.468V44.7031ZM22.2303 44.2623L23.0828 51.4166L24.0758 51.2983L23.2232 44.144L22.2303 44.2623ZM23.083 51.4184L23.1445 51.9193L24.1371 51.7975L24.0756 51.2965L23.083 51.4184ZM24.1353 51.9326L24.2144 51.4052L23.2255 51.2569L23.1464 51.7842L24.1353 51.9326ZM24.215 51.4013L25.2257 44.2733L24.2356 44.1329L23.2249 51.2609L24.215 51.4013ZM24.7307 44.7031H26.4973V43.7031H24.7307V44.7031ZM26.0027 44.277L27.075 51.4576L28.064 51.3099L26.9918 44.1293L26.0027 44.277ZM27.0751 51.458L27.1542 51.9853L28.1431 51.837L28.064 51.3096L27.0751 51.458ZM28.1454 51.9681L28.2069 51.432L27.2134 51.318L27.1519 51.8541L28.1454 51.9681ZM28.2065 51.4352L29.0766 44.2633L28.0839 44.1429L27.2138 51.3148L28.2065 51.4352ZM28.5803 44.7031H30.8479V43.7031H28.5803V44.7031ZM30.3526 44.1344L28.5772 56.9313L29.5677 57.0687L31.3431 44.2718L30.3526 44.1344ZM29.0725 56.5H26.84V57.5H29.0725V56.5ZM27.3336 56.9202L26.2174 50.012L25.2302 50.1716L26.3464 57.0798L27.3336 56.9202ZM26.2184 50.0183L26.1217 49.3679L25.1326 49.5149L25.2293 50.1653L26.2184 50.0183ZM25.1326 49.3679L25.0359 50.0183L26.025 50.1653L26.1217 49.5149L25.1326 49.3679ZM25.0364 50.0151L23.9641 56.9233L24.9523 57.0767L26.0246 50.1685L25.0364 50.0151ZM24.4582 56.5H22.2258V57.5H24.4582V56.5ZM40.9764 51.3926V51.8926H41.4764V51.3926H40.9764ZM35.7205 51.3926V50.8926H35.2205V51.3926H35.7205ZM35.7205 55.0049H35.2205V55.5049H35.7205V55.0049ZM41.8641 55.0049H42.3641V54.5049H41.8641V55.0049ZM41.8641 57V57.5H42.3641V57H41.8641ZM33.242 57H32.742V57.5H33.242V57ZM33.242 44.2031V43.7031H32.742V44.2031H33.242ZM41.8377 44.2031H42.3377V43.7031H41.8377V44.2031ZM41.8377 46.2158V46.7158H42.3377V46.2158H41.8377ZM35.7205 46.2158V45.7158H35.2205V46.2158H35.7205ZM35.7205 49.4414H35.2205V49.9414H35.7205V49.4414ZM40.9764 49.4414H41.4764V48.9414H40.9764V49.4414ZM40.9764 50.8926H35.7205V51.8926H40.9764V50.8926ZM35.2205 51.3926V55.0049H36.2205V51.3926H35.2205ZM35.7205 55.5049H41.8641V54.5049H35.7205V55.5049ZM41.3641 55.0049V57H42.3641V55.0049H41.3641ZM41.8641 56.5H33.242V57.5H41.8641V56.5ZM33.742 57V44.2031H32.742V57H33.742ZM33.242 44.7031H41.8377V43.7031H33.242V44.7031ZM41.3377 44.2031V46.2158H42.3377V44.2031H41.3377ZM41.8377 45.7158H35.7205V46.7158H41.8377V45.7158ZM35.2205 46.2158V49.4414H36.2205V46.2158H35.2205ZM35.7205 49.9414H40.9764V48.9414H35.7205V49.9414ZM40.4764 49.4414V51.3926H41.4764V49.4414H40.4764ZM49.1537 52.2188L49.6003 51.9938L49.4617 51.7188H49.1537V52.2188ZM47.2816 52.2188V51.7188H46.7816V52.2188H47.2816ZM47.2816 57V57.5H47.7816V57H47.2816ZM44.8119 57H44.3119V57.5H44.8119V57ZM44.8119 44.2031V43.7031H44.3119V44.2031H44.8119ZM51.0258 44.458L50.8839 44.9375L50.8884 44.9388L51.0258 44.458ZM52.5023 45.1875L52.814 44.7965L52.8113 44.7943L52.5023 45.1875ZM53.434 46.3916L52.9782 46.5973L52.9803 46.6018L53.434 46.3916ZM53.601 49.3008L53.1222 49.1564L53.1208 49.1614L53.601 49.3008ZM53.1439 50.2764L53.5536 50.5631L53.5547 50.5614L53.1439 50.2764ZM52.4057 51.041L52.1043 50.642L52.1004 50.645L52.4057 51.041ZM51.4564 51.6035L51.2513 51.1476L50.7684 51.3648L51.013 51.8345L51.4564 51.6035ZM54.2074 56.8857H54.7074V56.7633L54.6509 56.6548L54.2074 56.8857ZM54.2074 57V57.5H54.7074V57H54.2074ZM51.5619 57L51.1154 57.2249L51.2539 57.5H51.5619V57ZM47.2816 50.2148H46.7816V50.7148H47.2816V50.2148ZM50.1117 50.0566L50.2841 50.526L50.2893 50.524L50.1117 50.0566ZM50.8236 49.582L50.4571 49.2417L50.4493 49.2505L50.8236 49.582ZM51.1664 48.9932L50.6957 48.8242L50.6921 48.8351L51.1664 48.9932ZM51.1312 47.332L50.6633 47.5088L50.6685 47.5213L51.1312 47.332ZM50.6742 46.6816L50.3529 47.0647L50.3552 47.0667L50.6742 46.6816ZM47.2816 46.207V45.707H46.7816V46.207H47.2816ZM49.1537 51.7188H47.2816V52.7188H49.1537V51.7188ZM46.7816 52.2188V57H47.7816V52.2188H46.7816ZM47.2816 56.5H44.8119V57.5H47.2816V56.5ZM45.3119 57V44.2031H44.3119V57H45.3119ZM44.8119 44.7031H49.101V43.7031H44.8119V44.7031ZM49.101 44.7031C49.7705 44.7031 50.3633 44.7834 50.8839 44.9375L51.1677 43.9786C50.5398 43.7928 49.8494 43.7031 49.101 43.7031V44.7031ZM50.8884 44.9388C51.4093 45.0876 51.8411 45.3038 52.1934 45.5807L52.8113 44.7943C52.3433 44.4267 51.7907 44.1566 51.1631 43.9772L50.8884 44.9388ZM52.1907 45.5785C52.5317 45.8503 52.7934 46.1877 52.9782 46.5972L53.8897 46.186C53.641 45.6346 53.2816 45.1692 52.814 44.7965L52.1907 45.5785ZM52.9803 46.6018C53.1671 47.0048 53.268 47.4874 53.268 48.0615H54.268C54.268 47.3701 54.1462 46.7393 53.8876 46.1814L52.9803 46.6018ZM53.268 48.0615C53.268 48.4784 53.2171 48.8418 53.1223 49.1564L54.0797 49.4452C54.2075 49.0215 54.268 48.5587 54.268 48.0615H53.268ZM53.1208 49.1614C53.0292 49.477 52.8991 49.7522 52.7331 49.9913L53.5547 50.5614C53.7873 50.2263 53.9618 49.8512 54.0811 49.4402L53.1208 49.1614ZM52.7343 49.9896C52.5594 50.2395 52.35 50.4565 52.1044 50.642L52.707 51.44C53.0356 51.1919 53.3183 50.8992 53.5536 50.5631L52.7343 49.9896ZM52.1004 50.645C51.8526 50.8361 51.5703 51.004 51.2513 51.1476L51.6616 52.0595C52.0458 51.8866 52.3963 51.6796 52.7109 51.437L52.1004 50.645ZM51.013 51.8345L53.764 57.1167L54.6509 56.6548L51.8999 51.3726L51.013 51.8345ZM53.7074 56.8857V57H54.7074V56.8857H53.7074ZM54.2074 56.5H51.5619V57.5H54.2074V56.5ZM52.0085 56.7751L49.6003 51.9938L48.7072 52.4437L51.1154 57.2249L52.0085 56.7751ZM47.2816 50.7148H49.1098V49.7148H47.2816V50.7148ZM49.1098 50.7148C49.5356 50.7148 49.9301 50.656 50.2841 50.526L49.9393 49.5873C49.7191 49.6682 49.4457 49.7148 49.1098 49.7148V50.7148ZM50.2893 50.524C50.6469 50.3882 50.9554 50.1874 51.1979 49.9135L50.4493 49.2505C50.3286 49.3869 50.1625 49.5025 49.9341 49.5892L50.2893 50.524ZM51.19 49.9223C51.3945 49.702 51.5437 49.4423 51.6407 49.1513L50.6921 48.8351C50.6367 49.0011 50.5574 49.1339 50.4572 49.2418L51.19 49.9223ZM51.637 49.1621C51.7413 48.8715 51.7895 48.5584 51.7895 48.2285H50.7895C50.7895 48.4611 50.7556 48.6577 50.6958 48.8242L51.637 49.1621ZM51.7895 48.2285C51.7895 47.8376 51.7288 47.4723 51.594 47.1427L50.6685 47.5213C50.7446 47.7074 50.7895 47.9397 50.7895 48.2285H51.7895ZM51.599 47.1553C51.4706 46.8154 51.269 46.5252 50.9932 46.2966L50.3552 47.0667C50.4895 47.178 50.5927 47.3213 50.6635 47.5087L51.599 47.1553ZM50.9955 46.2985C50.7555 46.0972 50.4714 45.9512 50.1548 45.8526L49.8577 46.8075C50.0684 46.8731 50.2297 46.9614 50.3529 47.0647L50.9955 46.2985ZM50.1548 45.8526C49.8334 45.7527 49.48 45.707 49.101 45.707V46.707C49.4016 46.707 49.6517 46.7434 49.8577 46.8075L50.1548 45.8526ZM49.101 45.707H47.2816V46.707H49.101V45.707ZM46.7816 46.207V50.2148H47.7816V46.207H46.7816Z" fill="#F5F5F5" style="fill:#F5F5F5;fill:color(display-p3 0.9608 0.9608 0.9608);fill-opacity:1;" mask="url(#path-4-outside-1_26_4)"/>
<defs>
<linearGradient id="paint0_linear_26_4" x1="32" y1="0" x2="32" y2="64" gradientUnits="userSpaceOnUse">
<stop stop-color="#0079E9" style="stop-color:#0079E9;stop-color:color(display-p3 0.0000 0.4738 0.9148);stop-opacity:1;"/>
<stop offset="1" stop-color="#0055A5" style="stop-color:#0055A5;stop-color:color(display-p3 0.0000 0.3351 0.6469);stop-opacity:1;"/>
</linearGradient>
</defs>
</svg>
