<svg width="64" height="64" viewBox="0 0 64 64" fill="none" xmlns="http://www.w3.org/2000/svg">
<path fill-rule="evenodd" clip-rule="evenodd" d="M2 26C2 19.3726 7.37258 14 14 14H32H50C56.6274 14 62 19.3726 62 26V38C62 44.6274 56.6274 50 50 50H42.8262C40.1748 50 37.751 48.502 36.5652 46.1305L36.1056 45.2111C35.428 43.856 34.043 43 32.5279 43H32H31.4721C29.957 43 28.572 43.856 27.8944 45.2111L27.4348 46.1305C26.249 48.502 23.8252 50 21.1738 50H14C7.37258 50 2 44.6274 2 38V26ZM23 31C23 34.3137 20.3137 37 17 37C13.6863 37 11 34.3137 11 31C11 27.6863 13.6863 25 17 25C20.3137 25 23 27.6863 23 31ZM58.8574 27.7094C59.2078 27.3945 59.3449 26.902 59.1824 26.4602L59.1875 26.4551C58.9641 25.8508 58.6949 25.2719 58.3852 24.7133L58.1465 24.302C57.8113 23.7434 57.4355 23.2152 57.0242 22.7176C56.7246 22.357 56.227 22.2301 55.7801 22.3723L52.9516 23.2711C52.2711 22.748 51.5195 22.3113 50.7172 21.9813L50.0824 19.0816C49.9809 18.6195 49.6254 18.2539 49.1582 18.1777C48.4574 18.0609 47.7363 18 47 18C46.2637 18 45.5426 18.0609 44.8418 18.1828C44.3746 18.259 44.0191 18.6246 43.9176 19.0867L43.2828 21.9863C42.4805 22.3164 41.7289 22.7531 41.0484 23.2762L38.2199 22.3773C37.773 22.2352 37.2754 22.357 36.9758 22.7227C36.5645 23.2203 36.1887 23.7484 35.8535 24.307L35.6148 24.7184C35.3051 25.277 35.0359 25.8559 34.8125 26.4602C34.65 26.902 34.7871 27.3945 35.1375 27.7094L37.3363 29.7102C37.2805 30.1316 37.25 30.5633 37.25 31C37.25 31.4367 37.2805 31.8684 37.3363 32.2949L35.1375 34.2957C34.7871 34.6105 34.65 35.1031 34.8125 35.5449C35.0359 36.1492 35.3051 36.7281 35.6148 37.2867L35.8535 37.698C36.1887 38.2566 36.5645 38.7848 36.9758 39.2824C37.2754 39.643 37.773 39.7699 38.2199 39.6277L41.0434 38.7238C41.7238 39.2469 42.4754 39.6836 43.2777 40.0137L43.9125 42.9133C44.0141 43.3754 44.3695 43.741 44.8367 43.8172C45.5375 43.934 46.2586 43.9949 46.9949 43.9949C47.7313 43.9949 48.4523 43.934 49.1531 43.8172C49.6203 43.741 49.9758 43.3754 50.0773 42.9133L50.7121 40.0137C51.5145 39.6836 52.266 39.2469 52.9465 38.7238L55.775 39.6227C56.2219 39.7648 56.7195 39.643 57.0191 39.2773C57.4305 38.7797 57.8063 38.2516 58.1414 37.693L58.3801 37.2816C58.6898 36.723 58.959 36.1441 59.1824 35.5398C59.3449 35.098 59.2078 34.6055 58.8574 34.2906L56.6586 32.2898C56.7145 31.8684 56.7449 31.4367 56.7449 31C56.7449 30.5633 56.7145 30.1316 56.6586 29.7102L58.8574 27.7094ZM47 37C50.3137 37 53 34.3137 53 31C53 27.6863 50.3137 25 47 25C43.6863 25 41 27.6863 41 31C41 34.3137 43.6863 37 47 37Z" fill="white" style="fill:white;fill-opacity:1;"/>
</svg>
